<svg xmlns="http://www.w3.org/2000/svg" width="1200" height="260" viewBox="0 0 1200 260">
<defs>
  <linearGradient id="line" x1="0" y1="0" x2="1" y2="0">
    <stop offset="0" stop-color="#e1306c"/>
    <stop offset=".2" stop-color="#58a6ff"/>
    <stop offset=".4" stop-color="#3fb950"/>
    <stop offset=".6" stop-color="#a371f7"/>
    <stop offset=".8" stop-color="#f0883e"/>
    <stop offset="1" stop-color="#6e7681"/>
  </linearGradient>
</defs>
<rect width="1200" height="260" rx="24" fill="#0d1117" stroke="#30363d"/>
<text x="60" y="58" fill="#f0f6fc" font-family="Arial" font-size="24" font-weight="700">engineering spectrum</text>
<text x="60" y="84" fill="#8b949e" font-family="monospace" font-size="12">different products · same bias toward simple, inspectable systems</text>
<rect x="80" y="132" width="1040" height="6" rx="3" fill="url(#line)"/>

<circle cx="110" cy="135" r="11" fill="#e1306c"/>
<line x1="110" y1="146" x2="110" y2="170" stroke="#30363d"/>
<text x="110" y="194" text-anchor="middle" fill="#f0f6fc" font-family="Arial" font-size="14" font-weight="700">DealFeed</text>
<text x="110" y="216" text-anchor="middle" fill="#8b949e" font-family="monospace" font-size="10">product</text>
<circle cx="300" cy="135" r="11" fill="#58a6ff"/>
<line x1="300" y1="146" x2="300" y2="170" stroke="#30363d"/>
<text x="300" y="194" text-anchor="middle" fill="#f0f6fc" font-family="Arial" font-size="14" font-weight="700">Planner</text>
<text x="300" y="216" text-anchor="middle" fill="#8b949e" font-family="monospace" font-size="10">domain</text>
<circle cx="490" cy="135" r="11" fill="#3fb950"/>
<line x1="490" y1="146" x2="490" y2="170" stroke="#30363d"/>
<text x="490" y="194" text-anchor="middle" fill="#f0f6fc" font-family="Arial" font-size="14" font-weight="700">CRM</text>
<text x="490" y="216" text-anchor="middle" fill="#8b949e" font-family="monospace" font-size="10">operations</text>
<circle cx="680" cy="135" r="11" fill="#a371f7"/>
<line x1="680" y1="146" x2="680" y2="170" stroke="#30363d"/>
<text x="680" y="194" text-anchor="middle" fill="#f0f6fc" font-family="Arial" font-size="14" font-weight="700">Automation</text>
<text x="680" y="216" text-anchor="middle" fill="#8b949e" font-family="monospace" font-size="10">platform</text>
<circle cx="870" cy="135" r="11" fill="#f0883e"/>
<line x1="870" y1="146" x2="870" y2="170" stroke="#30363d"/>
<text x="870" y="194" text-anchor="middle" fill="#f0f6fc" font-family="Arial" font-size="14" font-weight="700">Campaign</text>
<text x="870" y="216" text-anchor="middle" fill="#8b949e" font-family="monospace" font-size="10">backend</text>
<circle cx="1060" cy="135" r="11" fill="#6e7681"/>
<line x1="1060" y1="146" x2="1060" y2="170" stroke="#30363d"/>
<text x="1060" y="194" text-anchor="middle" fill="#f0f6fc" font-family="Arial" font-size="14" font-weight="700">Save Editor</text>
<text x="1060" y="216" text-anchor="middle" fill="#8b949e" font-family="monospace" font-size="10">binary</text>
</svg>