<svg xmlns="http://www.w3.org/2000/svg" width="1200" height="430" viewBox="0 0 1200 430">
<defs>
  <linearGradient id="bg" x1="0" y1="0" x2="1" y2="1">
    <stop offset="0" stop-color="#0b1020"/>
    <stop offset="0.55" stop-color="#111827"/>
    <stop offset="1" stop-color="#17112b"/>
  </linearGradient>
  <linearGradient id="accent" x1="0" y1="0" x2="1" y2="0">
    <stop offset="0" stop-color="#58a6ff"/>
    <stop offset="1" stop-color="#a371f7"/>
  </linearGradient>
  <filter id="glow"><feGaussianBlur stdDeviation="28"/></filter>
</defs>
<rect width="1200" height="430" rx="28" fill="url(#bg)"/>
<circle cx="1025" cy="60" r="150" fill="#8250df" opacity=".18" filter="url(#glow)"/>
<circle cx="950" cy="330" r="170" fill="#1f6feb" opacity=".16" filter="url(#glow)"/>
<g opacity=".12" stroke="#8b949e">
  <path d="M0 85H1200M0 170H1200M0 255H1200M0 340H1200"/>
  <path d="M150 0V430M300 0V430M450 0V430M600 0V430M750 0V430M900 0V430M1050 0V430"/>
</g>
<rect x="68" y="66" width="102" height="32" rx="16" fill="#161b22" stroke="#30363d"/>
<text x="119" y="88" fill="#8b949e" text-anchor="middle" font-family="monospace" font-size="15">github://me</text>
<text x="68" y="160" fill="#f0f6fc" font-family="Arial,Helvetica,sans-serif" font-size="54" font-weight="700">Dmytro Breygel</text>
<rect x="68" y="190" width="492" height="5" rx="2.5" fill="url(#accent)"/>
<text x="68" y="235" fill="#c9d1d9" font-family="Arial,Helvetica,sans-serif" font-size="22">Technical Delivery professionally.</text>
<text x="68" y="270" fill="#f0f6fc" font-family="Arial,Helvetica,sans-serif" font-size="26" font-weight="700">Hands-on builder on GitHub.</text>
<text x="68" y="324" fill="#8b949e" font-family="monospace" font-size="16">products · backend · automation · infrastructure · weird useful tools</text>

<g transform="translate(760 93)">
  <rect width="360" height="245" rx="22" fill="#0d1117" stroke="#30363d"/>
  <text x="26" y="38" fill="#58a6ff" font-family="monospace" font-size="15">~/builds</text>
  <g font-family="monospace" font-size="15">
    <circle cx="31" cy="78" r="5" fill="#3fb950"/><text x="48" y="83" fill="#c9d1d9">delivery-planner</text>
    <circle cx="31" cy="111" r="5" fill="#3fb950"/><text x="48" y="116" fill="#c9d1d9">automotive-crm</text>
    <circle cx="31" cy="144" r="5" fill="#3fb950"/><text x="48" y="149" fill="#c9d1d9">campaign-platform</text>
    <circle cx="31" cy="177" r="5" fill="#3fb950"/><text x="48" y="182" fill="#c9d1d9">dealfeed</text>
    <circle cx="31" cy="210" r="5" fill="#3fb950"/><text x="48" y="215" fill="#c9d1d9">save-editor</text>
  </g>
</g>
</svg>