<svg xmlns="http://www.w3.org/2000/svg" width="570" height="410" viewBox="0 0 570 410">
<defs><linearGradient id="g"><stop stop-color="#f85149"/><stop offset="1" stop-color="#a371f7"/></linearGradient></defs>
<rect width="570" height="410" rx="23" fill="#111827" stroke="#30363d"/>
<rect width="570" height="6" rx="3" fill="url(#g)"/>
<text x="30" y="42" fill="#f85149" font-family="monospace" font-size="10">BACKEND / OPERATIONS</text>
<text x="30" y="78" fill="#f0f6fc" font-family="Arial,Helvetica,sans-serif" font-size="23" font-weight="700">Campaign Platform</text>
<text x="30" y="106" fill="#a8b3c2" font-family="Arial,Helvetica,sans-serif" font-size="12">Backend-heavy operations with auth,</text>
<text x="30" y="124" fill="#a8b3c2" font-family="Arial,Helvetica,sans-serif" font-size="12">webhooks and imports</text>
<line x1="30" y1="145" x2="540" y2="145" stroke="#30363d"/>
<text x="30" y="169" fill="#8b949e" font-family="monospace" font-size="9">INSIDE</text>
<text x="315" y="169" fill="#8b949e" font-family="monospace" font-size="9">CORE</text>
<g transform="translate(30 183)"><circle cx="6" cy="10" r="5" fill="#f85149"/><text x="20" y="14" fill="#c9d1d9" font-family="monospace" font-size="11">api</text></g><g transform="translate(30 223)"><circle cx="6" cy="10" r="5" fill="#f85149"/><text x="20" y="14" fill="#c9d1d9" font-family="monospace" font-size="11">webhooks</text></g><g transform="translate(30 263)"><circle cx="6" cy="10" r="5" fill="#f85149"/><text x="20" y="14" fill="#c9d1d9" font-family="monospace" font-size="11">imports</text></g><g transform="translate(315 183)"><rect width="210" height="28" rx="8" fill="#0d1117" stroke="#30363d"/><rect x="10" y="10" width="48" height="7" rx="3.5" fill="#a371f7" opacity=".8"/><text x="88" y="18" fill="#c9d1d9" font-family="monospace" font-size="10">auth</text></g><g transform="translate(315 223)"><rect width="210" height="28" rx="8" fill="#0d1117" stroke="#30363d"/><rect x="10" y="10" width="66" height="7" rx="3.5" fill="#a371f7" opacity=".8"/><text x="88" y="18" fill="#c9d1d9" font-family="monospace" font-size="10">postgres</text></g><g transform="translate(315 263)"><rect width="210" height="28" rx="8" fill="#0d1117" stroke="#30363d"/><rect x="10" y="10" width="84" height="7" rx="3.5" fill="#a371f7" opacity=".8"/><text x="88" y="18" fill="#c9d1d9" font-family="monospace" font-size="10">tests</text></g>
<line x1="30" y1="338" x2="540" y2="338" stroke="#30363d"/>
<g transform="translate(30 355)"><rect width="92" height="27" rx="13.5" fill="#0d1117" stroke="#30363d"/><text x="46" y="17" text-anchor="middle" fill="#c9d1d9" font-family="monospace" font-size="10">TypeScript</text></g><g transform="translate(134 355)"><rect width="92" height="27" rx="13.5" fill="#0d1117" stroke="#30363d"/><text x="46" y="17" text-anchor="middle" fill="#c9d1d9" font-family="monospace" font-size="10">Postgres</text></g><g transform="translate(238 355)"><rect width="92" height="27" rx="13.5" fill="#0d1117" stroke="#30363d"/><text x="46" y="17" text-anchor="middle" fill="#c9d1d9" font-family="monospace" font-size="10">E2E</text></g>
<text x="438" y="373" fill="#6e7681" font-family="monospace" font-size="9">showcase →</text>
</svg>