<svg xmlns="http://www.w3.org/2000/svg" width="570" height="290" viewBox="0 0 570 290">
<defs><linearGradient id="g" x1="0" y1="0" x2="1" y2="0"><stop stop-color="#d65bff"/><stop offset="1" stop-color="#16d9ff"/></linearGradient></defs>
<rect x=".5" y=".5" width="569" height="289" rx="22" fill="#07131b" stroke="#16475a"/>
<rect x="1" y="1" width="568" height="6" rx="3" fill="url(#g)"/>
<text x="28" y="38" fill="#d65bff" font-family="monospace" font-size="11">BACKEND / TRUST BOUNDARIES</text>
<text x="28" y="76" fill="#f5f8fa" font-family="Arial" font-size="28" font-weight="800">Campaign Platform</text>
<text x="28" y="105" fill="#b8c7cf" font-family="Arial" font-size="15">Campaign and user operations with explicit trust.</text>
<line x1="28" y1="126" x2="542" y2="126" stroke="#173f50"/>
<circle cx="34" cy="157" r="4" fill="#d65bff"/><text x="48" y="162" fill="#dce6eb" font-family="Arial" font-size="14">Public · authenticated · provider · admin</text><circle cx="34" cy="184" r="4" fill="#d65bff"/><text x="48" y="189" fill="#dce6eb" font-family="Arial" font-size="14">Signed unsubscribe + verified webhooks</text><circle cx="34" cy="211" r="4" fill="#d65bff"/><text x="48" y="216" fill="#dce6eb" font-family="Arial" font-size="14">Liveness ≠ readiness</text>
<g transform="translate(28 244)"><g transform="translate(0 0)"><rect width="100" height="26" rx="8" fill="#0b1d27" stroke="#1c566b"/><text x="50" y="17" text-anchor="middle" fill="#aabac3" font-family="monospace" font-size="10">Express 5</text></g><g transform="translate(112 0)"><rect width="100" height="26" rx="8" fill="#0b1d27" stroke="#1c566b"/><text x="50" y="17" text-anchor="middle" fill="#aabac3" font-family="monospace" font-size="10">Postgres</text></g><g transform="translate(224 0)"><rect width="100" height="26" rx="8" fill="#0b1d27" stroke="#1c566b"/><text x="50" y="17" text-anchor="middle" fill="#aabac3" font-family="monospace" font-size="10">Docker</text></g></g>
<text x="492" y="263" fill="#d65bff" font-family="monospace" font-size="10">open →</text>
</svg>