<svg xmlns="http://www.w3.org/2000/svg" width="570" height="410" viewBox="0 0 570 410">
<defs><linearGradient id="g"><stop stop-color="#d6a62d"/><stop offset="1" stop-color="#6e7681"/></linearGradient></defs>
<rect x=".5" y=".5" width="569" height="409" rx="22.5" fill="#111827" stroke="#30363d"/>
<rect x=".5" y=".5" width="569" height="6" rx="3" fill="url(#g)"/>
<text x="30" y="42" fill="#d6a62d" font-family="monospace" font-size="10">DESKTOP · WEB · IN-GAME MOD</text>
<text x="30" y="78" fill="#f0f6fc" font-family="Arial,Helvetica,sans-serif" font-size="20" font-weight="700">S.T.A.L.K.E.R. Save Editor</text>
<text x="30" y="106" fill="#a8b3c2" font-family="Arial,Helvetica,sans-serif" font-size="11.5">One C# core for 7 save formats, desktop,</text>
<text x="30" y="124" fill="#a8b3c2" font-family="Arial,Helvetica,sans-serif" font-size="11.5">browser, CLI and an in-game Lua companion</text>
<line x1="30" y1="145" x2="540" y2="145" stroke="#30363d"/>
<text x="30" y="169" fill="#8b949e" font-family="monospace" font-size="8.5">INSIDE</text>
<text x="315" y="169" fill="#8b949e" font-family="monospace" font-size="8.5">CORE</text>
<g transform="translate(30 184)"><circle cx="6" cy="9" r="4.5" fill="#d6a62d"/><text x="20" y="13" fill="#c9d1d9" font-family="monospace" font-size="10.5">parse · edit · verify</text></g><g transform="translate(30 220)"><circle cx="6" cy="9" r="4.5" fill="#d6a62d"/><text x="20" y="13" fill="#c9d1d9" font-family="monospace" font-size="10.5">backup · journal · undo</text></g><g transform="translate(30 256)"><circle cx="6" cy="9" r="4.5" fill="#d6a62d"/><text x="20" y="13" fill="#c9d1d9" font-family="monospace" font-size="10.5">Steam Cloud · achievements</text></g><g transform="translate(30 292)"><circle cx="6" cy="9" r="4.5" fill="#d6a62d"/><text x="20" y="13" fill="#c9d1d9" font-family="monospace" font-size="10.5">in-game menu for 3 games</text></g><g transform="translate(315 180)"><rect width="225" height="28" rx="8" fill="#0d1117" stroke="#30363d"/><circle cx="15" cy="14" r="4" fill="#6e7681"/><text x="29" y="18" fill="#c9d1d9" font-family="monospace" font-size="9.2">X-Ray LZO · S2 Kraken</text></g><g transform="translate(315 216)"><rect width="225" height="28" rx="8" fill="#0d1117" stroke="#30363d"/><circle cx="15" cy="14" r="4" fill="#6e7681"/><text x="29" y="18" fill="#c9d1d9" font-family="monospace" font-size="9.2">Avalonia desktop + WASM</text></g><g transform="translate(315 252)"><rect width="225" height="28" rx="8" fill="#0d1117" stroke="#30363d"/><circle cx="15" cy="14" r="4" fill="#6e7681"/><text x="29" y="18" fill="#c9d1d9" font-family="monospace" font-size="9.2">native libsteam_api worker</text></g><g transform="translate(315 288)"><rect width="225" height="28" rx="8" fill="#0d1117" stroke="#30363d"/><circle cx="15" cy="14" r="4" fill="#6e7681"/><text x="29" y="18" fill="#c9d1d9" font-family="monospace" font-size="9.2">NativeAOT CLI</text></g>
<line x1="30" y1="338" x2="540" y2="338" stroke="#30363d"/>
<g transform="translate(30 355)"><rect width="108" height="27" rx="13.5" fill="#0d1117" stroke="#30363d"/><text x="54.0" y="17" text-anchor="middle" fill="#c9d1d9" font-family="monospace" font-size="9.5">C# / .NET 10</text></g><g transform="translate(150 355)"><rect width="80" height="27" rx="13.5" fill="#0d1117" stroke="#30363d"/><text x="40.0" y="17" text-anchor="middle" fill="#c9d1d9" font-family="monospace" font-size="9.5">Avalonia</text></g><g transform="translate(242 355)"><rect width="70" height="27" rx="13.5" fill="#0d1117" stroke="#30363d"/><text x="35.0" y="17" text-anchor="middle" fill="#c9d1d9" font-family="monospace" font-size="9.5">WASM</text></g><g transform="translate(324 355)"><rect width="70" height="27" rx="13.5" fill="#0d1117" stroke="#30363d"/><text x="35.0" y="17" text-anchor="middle" fill="#c9d1d9" font-family="monospace" font-size="9.5">Lua</text></g>
<text x="438" y="373" fill="#6e7681" font-family="monospace" font-size="8.5">public repo →</text>
</svg>